<svg width="137" height="47" viewBox="0 0 137 47" fill="none" xmlns="http://www.w3.org/2000/svg">
<path fill-rule="evenodd" clip-rule="evenodd" d="M7.00478 23.8946C6.91563 20.1894 8.0765 16.5622 10.3003 13.5973C11.4602 12.0509 11.1468 9.8571 9.60047 8.69725C8.05411 7.53741 5.8603 7.85074 4.70045 9.3971C1.53319 13.6198 -0.120164 18.7859 0.00680338 24.063C0.133771 29.34 2.03366 34.4206 5.40034 38.4861C8.76702 42.5516 13.4044 45.3653 18.5653 46.4737C23.7261 47.5822 29.1099 46.9208 33.849 44.5962C38.5881 42.2717 42.4066 38.4192 44.6892 33.6597C46.9718 28.9002 47.5855 23.5109 46.4315 18.36C45.2775 13.2092 42.4229 8.59682 38.3278 5.26622C34.2327 1.93562 29.1355 0.0807195 23.8575 0.000413479C21.9248 -0.0289945 20.3341 1.51399 20.3047 3.44676C20.2753 5.37953 21.8183 6.9702 23.751 6.9996C27.4568 7.05599 31.0357 8.35836 33.911 10.6969C36.7863 13.0354 38.7906 16.2738 39.6009 19.8904C40.4111 23.5069 39.9802 27.291 38.3775 30.6327C36.7749 33.9745 34.0938 36.6794 30.7663 38.3116C27.4388 39.9437 23.6588 40.4081 20.0352 39.6298C16.4116 38.8515 13.1556 36.876 10.7917 34.0215C8.42789 31.1669 7.09393 27.5997 7.00478 23.8946ZM59.1178 10.1957V38.5157H76.9578V32.5557H65.9978V10.1957H59.1178ZM80.1725 10.1957V38.5157H87.0525V10.1957H80.1725ZM99.6669 16.0357V21.8757H110.627V27.5157H99.6669V38.5157H92.9069V10.1957H111.547V16.0357H99.6669ZM128.074 38.5157V16.0357H136.074V10.1957H113.234V16.0357H121.234V38.5157H128.074Z" fill="url(#paint0_linear)"/>
<defs>
<linearGradient id="paint0_linear" x1="68.1978" y1="6.69556" x2="68.1978" y2="42.1956" gradientUnits="userSpaceOnUse">
<stop stop-color="#282828"/>
<stop offset="1" stop-color="#111111"/>
</linearGradient>
</defs>
</svg>
